<svg xmlns="http://www.w3.org/2000/svg" id="Layer_1" x="0px" y="0px" viewBox="0 0 120.8 24.2">
  <path d="M18.5 7.6h4.2v15.7h-4.2zM11 11.7h4.2v11.5H11zM3.4 7.6h4.2v15.7H3.4zM0 0h26.1v4.2H0zM74.6 22.7c0-.3.2-.5.6-.5.4 0 .6.3.6.7 0 .5-.3 1.1-.9 1.3l-.4-.4c.3-.1.5-.4.6-.6-.3 0-.5-.2-.5-.5M81.7 22.4c.7 0 1.2-.4 1.2-1.1 0-.7-.5-1.2-1.2-1.2h-1.3v2.2h1.3zm-.1-3c.6 0 1-.3 1-1 0-.6-.4-1-1.1-1h-1.1v1.9h1.2zm1 .3c.6.1 1.3.6 1.3 1.7 0 1.2-.8 1.8-2.2 1.8h-3v-.9h.6v-4.9h-.6v-.9h2.9c1.2 0 1.9.7 1.9 1.7.1.9-.4 1.3-.9 1.5zM89.4 21.1c0 1.4-.8 2.2-2.1 2.2s-2.1-.8-2.1-2.2v-2.4h-.6v-.8h2.1v.8h-.6v2.4c0 .9.4 1.3 1.2 1.3.8 0 1.2-.4 1.2-1.3v-2.4h-.6v-.8h2v.8h-.6v2.4zM93.1 22.4c1 0 1.7-.5 1.7-1.8s-.7-1.9-1.7-1.9h-.8v3.6h.8zm0-4.5c1.6 0 2.7 1 2.7 2.7 0 1.7-1 2.7-2.6 2.7h-2.4v-.8h.6v-3.6h-.6v-.8h2.3zM98.9 19.9l-.4-1.2s-.1.3-.4 1.3l-.3.9h1.5l-.4-1zm2.4 3.3h-2v-.8h.5l-.3-.9h-1.9l-.3.9h.5v.8h-1.9v-.8h.5l1-2.7.3-.9h-.5V18h2.1l1.6 4.5h.5v.7zM104.1 20.5c.7 0 1-.3 1-.9 0-.5-.3-.9-1-.9h-.8v1.7h.8zm-.1-2.6c1.2 0 2 .6 2 1.7 0 1-.7 1.6-2 1.6h-.7v1.2h.6v.8h-2.1v-.8h.6v-3.6h-.6V18h2.2zM106.7 23.2v-.8h.5v-3.7h-.5v-.8h4.1v1.6h-.9v-.8h-1.7v1.4h1.5v.8h-1.5v1.5h1.7v-.8h.9v1.6zM112.6 21.7c0 .5.4.8 1.1.8.6 0 .9-.2.9-.7 0-.7-.7-.8-1.2-.9-.7-.2-1.6-.5-1.6-1.6 0-1 .7-1.5 1.7-1.5.6 0 1 .2 1.2.5v-.4h.8v1.7h-.8v-.2c0-.5-.4-.8-1-.8-.5 0-.8.2-.8.7 0 .5.6.7 1.2.9.7.2 1.6.5 1.6 1.7 0 1-.8 1.5-1.7 1.5-.7 0-1.1-.2-1.3-.5v.4h-.8v-1.7h.9v.1zM119.9 19.5v-.8h-1v3.7h.6v.8h-2.1v-.8h.6v-3.7h-1v.8h-.9v-1.6h4.7v1.6zM34.6 11.2l-1.8-3.6H31v.9h.6v4.9H31v.9h2.1v-.9h-.6v-1.8-2.4s.3.6.8 1.8l.8 1.7h.6l.8-1.7c.6-1.1.8-1.7.8-1.7v4.1h-.7v.9H38v-.9h-.6V8.5h.6v-.9h-1.7l-1.7 3.6zM41.9 9.7h.6v2.4c0 .9-.4 1.3-1.2 1.3-.8 0-1.2-.4-1.2-1.3V9.7h.6v-.8h-2.1v.8h.6v2.4c0 1.4.8 2.2 2.1 2.2s2.1-.8 2.1-2.2V9.7h.6v-.8h-2v.8zM53 13.4h-1.7v-1.5h1.5v-.8h-1.5V9.7H53v.8h.9V8.9h-4.1v.8h.5v3.7h-.5v.8h4.1v-1.6H53zM58 9.7h.6v2.4c0 .9-.4 1.3-1.2 1.3-.8 0-1.2-.4-1.2-1.3V9.7h.6v-.8h-2.1v.8h.6v2.4c0 1.4.8 2.2 2.1 2.2s2.1-.8 2.1-2.2V9.7h.5v-.8h-2v.8zM64.3 10.9c-.2.5-.4.8-.4.8s-.2-.3-.4-.8l-1-2h-1.6v.8h.6v3.6h-.6v.9h1.9v-.9h-.5v-1.5-1.6l1.3 2.6h.6l1.2-2.5v3.1h-.5v.9h2v-.9h-.6V9.7h.6v-.8h-1.6l-1 2zM45.7 12.8c0 .5.4.8 1.1.8.6 0 .9-.2.9-.7 0-.7-.7-.8-1.2-.9-.7-.2-1.6-.5-1.6-1.6 0-1 .7-1.5 1.7-1.5.6 0 1 .2 1.2.5V9h.8v1.7h-.8v-.2c0-.5-.4-.8-1-.8-.5 0-.8.2-.8.7 0 .5.6.7 1.2.9.7.2 1.6.5 1.6 1.7 0 1.1-.8 1.5-1.7 1.5-.7 0-1.1-.2-1.3-.5v.4H45v-1.7h.9v.1zM72.6 13.5c.9 0 1.5-.7 1.5-1.9s-.6-1.9-1.5-1.9-1.5.7-1.5 1.9.6 1.9 1.5 1.9m0-4.7c1.5 0 2.5 1 2.5 2.8 0 1.7-1 2.8-2.5 2.8s-2.5-1-2.5-2.8c0-1.8 1-2.8 2.5-2.8M78.9 10.5v-.8h-1.6v1.5h1.5v.8h-1.5v1.4h.7v.8h-2.2v-.8h.5V9.7h-.5v-.8h4v1.6zM34.8 18.5v-1h-2.1v2h1.9v.9h-1.9v1.9h.8v.9H31v-.9h.7v-4.8H31v-.9h4.8v1.9zM38.3 22.4v.8h-2.1v-.8h.6v-3.7h-.6v-.8h2.1v.8h-.6v3.7zM44.1 23.2h-.9l-2.5-3.9v3h.6v.8h-1.9v-.8h.6v-3.6h-.6v-.8h1.5l2.5 3.8v-3h-.6v-.8h1.9v.8h-.6v4.5zM45.5 23.2v-.8h.6v-3.7h-.6v-.8h4.1v1.6h-.9v-.8H47v1.4h1.5v.8H47v1.5h1.8v-.8h.9v1.6zM56.4 19.3c-.4-1.3-.6-1.9-.6-2 0 0-.2.7-.6 2l-.3 1h1.9l-.4-1zm2.7 3.9h-2.2v-.9h.6l-.5-1.2h-2.5l-.4 1.2h.6v.9h-2.1v-.9h.6l1.5-4.2.2-.6h-.6v-.9h2.3l2 5.8h.6v.8zM61.9 20.4c.6 0 1-.3 1-.8 0-.6-.4-.8-1-.8h-.8v1.7h.8zm1 2.8l-1.1-2.1H61v1.2h.6v.8h-2.1v-.8h.6v-3.6h-.6v-.8h2.3c1.3 0 2 .6 2 1.7 0 .7-.4 1.2-1 1.4l.8 1.4h.6v.8h-1.3zM68.3 19.5v-.8h-1v3.7h.6v.8h-2.2v-.8h.6v-3.7h-1v.8h-.8v-1.6h4.6v1.6zM70.6 21.7c0 .5.4.8 1.1.8.6 0 .9-.2.9-.7 0-.7-.7-.8-1.2-.9-.7-.2-1.6-.5-1.6-1.6 0-1 .7-1.5 1.6-1.5.6 0 1 .2 1.2.5v-.4h.8v1.7h-.8v-.2c0-.5-.4-.8-1-.8-.5 0-.8.2-.8.7 0 .5.6.7 1.2.9.7.2 1.6.5 1.6 1.7 0 1-.8 1.5-1.7 1.5-.7 0-1.1-.2-1.3-.5v.4h-.8v-1.7h.9v.1z" class="st0"/>
</svg>
